<svg xmlns="http://www.w3.org/2000/svg" viewBox="0 0 32 32" shape-rendering="crispEdges">
  <title>Kaffeepause</title>
  <rect width="32" height="32" fill="#17131e"/>
  <rect x="2" y="2" width="28" height="28" fill="#624447"/>

  <!-- Regentag im Caféfenster -->
  <rect x="4" y="4" width="24" height="10" fill="#241923"/>
  <rect x="5" y="5" width="22" height="8" fill="#30394f"/>
  <rect x="6" y="6" width="2" height="4" fill="#7087a2"/>
  <rect x="23" y="5" width="1" height="3" fill="#a3b0be"/>
  <rect x="18" y="9" width="1" height="3" fill="#7087a2"/>
  <rect x="10" y="11" width="4" height="2" fill="#455068"/>
  <rect x="20" y="10" width="5" height="3" fill="#252b43"/>
  <rect x="5" y="13" width="22" height="2" fill="#d99157"/>

  <!-- Dampf -->
  <rect x="12" y="10" width="2" height="2" fill="#e1bd83"/>
  <rect x="14" y="8" width="2" height="2" fill="#f2c274"/>
  <rect x="18" y="11" width="2" height="2" fill="#e1bd83"/>
  <rect x="17" y="7" width="2" height="3" fill="#f2c274"/>

  <!-- Tasse und Untertasse -->
  <rect x="7" y="17" width="17" height="2" fill="#241923"/>
  <rect x="8" y="19" width="15" height="8" fill="#241923"/>
  <rect x="10" y="19" width="11" height="6" fill="#fff0c3"/>
  <rect x="11" y="19" width="9" height="2" fill="#8d5947"/>
  <rect x="11" y="21" width="2" height="3" fill="#e1bd83"/>
  <rect x="21" y="20" width="5" height="6" fill="#241923"/>
  <rect x="23" y="21" width="2" height="3" fill="#e1bd83"/>
  <rect x="9" y="25" width="13" height="2" fill="#d3965f"/>
  <rect x="6" y="27" width="20" height="2" fill="#241923"/>
  <rect x="9" y="27" width="14" height="1" fill="#f2c274"/>
</svg>
